<?xml version="1.0" standalone="no"?>
<!DOCTYPE svg PUBLIC "-//W3C//DTD SVG 20010904//EN"
 "http://www.w3.org/TR/2001/REC-SVG-20010904/DTD/svg10.dtd">
<svg version="1.0" xmlns="http://www.w3.org/2000/svg"
 width="144.000000pt" height="144.000000pt" viewBox="0 0 144.000000 144.000000"
 preserveAspectRatio="xMidYMid meet">
<metadata>
Created by potrace 1.11, written by Peter Selinger 2001-2013
</metadata>
<g transform="translate(0.000000,144.000000) scale(0.100000,-0.100000)"
fill="#000000" stroke="none">
<path d="M640 1399 c-36 -9 -85 -26 -110 -38 -149 -68 -269 -226 -322 -420
-29 -106 -31 -363 -4 -466 22 -84 82 -214 102 -222 7 -3 12 -9 9 -13 -9 -14
111 -118 171 -148 73 -37 165 -62 227 -62 l45 0 -3 47 c-1 26 -8 49 -15 51
-29 10 -80 67 -90 100 -6 23 -10 217 -10 502 0 463 0 466 23 510 14 30 34 51
58 62 33 17 35 21 34 65 0 43 -3 47 -25 48 -14 1 -54 -6 -90 -16z"/>
<path d="M840 1370 c0 -49 0 -49 45 -69 99 -44 178 -155 229 -323 27 -86 36
-98 81 -98 43 0 46 17 46 227 0 284 1 280 -17 297 -24 24 -43 19 -80 -20 -42
-47 -66 -47 -169 -3 -18 7 -124 39 -132 39 -2 0 -3 -22 -3 -50z"/>
<path d="M1172 433 c-8 -3 -28 -38 -47 -78 -19 -43 -51 -91 -79 -119 -44 -45
-153 -106 -188 -106 -15 0 -18 -9 -18 -54 l0 -53 48 8 c176 28 362 219 353
361 -2 34 -36 54 -69 41z"/>
</g>
</svg>
